<?xml version="1.0" encoding="utf-8"?>
<!-- Generator: Adobe Illustrator 25.2.3, SVG Export Plug-In . SVG Version: 6.00 Build 0)  -->
<svg version="1.1" id="Layer_1" xmlns="http://www.w3.org/2000/svg" xmlns:xlink="http://www.w3.org/1999/xlink" x="0px" y="0px"
	 viewBox="0 0 512 256" style="enable-background:new 0 0 512 256;" xml:space="preserve">
<style type="text/css">
	.st0{fill:#001829;}
	.st1{fill:none;stroke:#297EA6;}
	.st2{fill:url(#SVGID_1_);}
	.st3{fill:#FA7268;}
	.st4{fill:#00CC99;}
</style>
<g>
	<rect x="0" class="st0" width="512" height="256"/>
	<g transform="translate(474 66)">
		<path class="st1" d="M-1.24-9.12l14.4,14.4l-14.4,14.4l-14.4-14.4L-1.24-9.12z"/>
	</g>
	<g transform="translate(86 205)">
		<path class="st1" d="M-1.24,2.28l3,3l-3,3l-3-3L-1.24,2.28z"/>
	</g>
	<g transform="translate(505 177)">
		<path class="st1" d="M-1.24-1.72l7,7l-7,7l-7-7L-1.24-1.72z"/>
	</g>
	<g transform="translate(418 215)">
		<path class="st1" d="M-1.24-7.72l13,13l-13,13l-13-13L-1.24-7.72z"/>
	</g>
	<g transform="translate(235 31)">
		<path class="st1" d="M-1.24,3.28l2,2l-2,2l-2-2L-1.24,3.28z"/>
	</g>
	<g transform="translate(204 251)">
		<polygon class="st1" points="5.48,5 -7.96,5 -1.24,-1.72 		"/>
	</g>
	<g transform="translate(41 190)">
		<path class="st1" d="M-1.24,4.28l1,1l-1,1l-1-1L-1.24,4.28z"/>
	</g>
	<g transform="translate(335 203)">
		<path class="st1" d="M-1.24,3.28l2,2l-2,2l-2-2L-1.24,3.28z"/>
	</g>
	<g transform="translate(398 56)">
		<path class="st1" d="M-1.24,3.28l2,2l-2,2l-2-2L-1.24,3.28z"/>
	</g>
	<g transform="translate(189 155)">
		<path class="st1" d="M-1.24,0.28l5,5l-5,5l-5-5L-1.24,0.28z"/>
	</g>
	<g transform="translate(286 190)">
		<path class="st1" d="M-1.24,2.28l3,3l-3,3l-3-3L-1.24,2.28z"/>
	</g>
	<g transform="translate(179 81)">
		<path class="st1" d="M-1.24,4.28l1,1l-1,1l-1-1L-1.24,4.28z"/>
	</g>
	<g transform="translate(224 149)">
		<path class="st1" d="M-1.24,0.28l5,5l-5,5l-5-5L-1.24,0.28z"/>
	</g>
	<g transform="translate(148 200)">
		<path class="st1" d="M-1.24-1.72l7,7l-7,7l-7-7L-1.24-1.72z"/>
	</g>
	<g transform="translate(304 139)">
		<path class="st1" d="M-1.24-3.72l9,9l-9,9l-9-9L-1.24-3.72z"/>
	</g>
	<g transform="translate(269 14)">
		<path class="st1" d="M-1.24-6.72l12,12l-12,12l-12-12L-1.24-6.72z"/>
	</g>
	<g transform="translate(224 74)">
		<path class="st1" d="M-1.24,0.28l5,5l-5,5l-5-5L-1.24,0.28z"/>
	</g>
	<g transform="translate(284 63)">
		<path class="st1" d="M-1.24-5.72l11,11l-11,11l-11-11L-1.24-5.72z"/>
	</g>
	<g transform="translate(488 253)">
		<path class="st1" d="M-1.24,0.28l5,5l-5,5l-5-5L-1.24,0.28z"/>
	</g>
	<g transform="translate(178 24)">
		<path class="st1" d="M-1.24-5.72l11,11l-11,11l-11-11L-1.24-5.72z"/>
	</g>
	<g transform="translate(124 218)">
		<path class="st1" d="M-1.24-4.72l10,10l-10,10l-10-10L-1.24-4.72z"/>
	</g>
	<g transform="translate(159 138)">
		<path class="st1" d="M-1.24-0.72l6,6l-6,6l-6-6L-1.24-0.72z"/>
	</g>
	<g transform="translate(431 105)">
		<path class="st1" d="M-1.24,4.28l1,1l-1,1l-1-1L-1.24,4.28z"/>
	</g>
	<g transform="translate(162 242)">
		<polygon class="st1" points="8.76,5.28 0.04,14 -2.52,14 -11.24,5.28 -1.24,-4.72 		"/>
	</g>
	<g transform="translate(312 168)">
		<path class="st1" d="M-1.24,3.28l2,2l-2,2l-2-2L-1.24,3.28z"/>
	</g>
	<g transform="translate(469 150)">
		<path class="st1" d="M-1.24-1.72l7,7l-7,7l-7-7L-1.24-1.72z"/>
	</g>
	<g transform="translate(448 11)">
		<path class="st1" d="M-1.24,1.28l4,4l-4,4l-4-4L-1.24,1.28z"/>
	</g>
	<g transform="translate(365 169)">
		<path class="st1" d="M-1.24,1.28l4,4l-4,4l-4-4L-1.24,1.28z"/>
	</g>
	<g transform="translate(12 43)">
		<path class="st1" d="M-1.24-0.72l6,6l-6,6l-6-6L-1.24-0.72z"/>
	</g>
	<g transform="translate(48 17)">
		<path class="st1" d="M-1.24,2.28l3,3l-3,3l-3-3L-1.24,2.28z"/>
	</g>
	<g transform="translate(3 164)">
		<path class="st1" d="M-1.24,3.28l2,2l-2,2l-2-2L-1.24,3.28z"/>
	</g>
	<g transform="translate(374 15)">
		<path class="st1" d="M-1.24-5.72l11,11l-11,11l-11-11L-1.24-5.72z"/>
	</g>
	<g transform="translate(157 53)">
		<path class="st1" d="M-40.24-21.72l9,9l-9,9l-9-9L-40.24-21.72z"/>
	</g>
	<g transform="translate(56 125)">
		<path class="st1" d="M-1.24,0.28l5,5l-5,5l-5-5L-1.24,0.28z"/>
	</g>
	<g transform="translate(253 233)">
		<path class="st1" d="M-1.24,1.28l4,4l-4,4l-4-4L-1.24,1.28z"/>
	</g>
	<g transform="translate(449 222)">
		<path class="st1" d="M-1.24,2.28l3,3l-3,3l-3-3L-1.24,2.28z"/>
	</g>
	<g transform="translate(269 123)">
		<path class="st1" d="M-1.24-2.72l8,8l-8,8l-8-8L-1.24-2.72z"/>
	</g>
	<g transform="translate(194 55)">
		<path class="st1" d="M-1.24-0.72l6,6l-6,6l-6-6L-1.24-0.72z"/>
	</g>
	<g transform="translate(417 13)">
		<path class="st1" d="M-1.24,0.28l5,5l-5,5l-5-5L-1.24,0.28z"/>
	</g>
</g>
<g>
	<linearGradient id="SVGID_1_" gradientUnits="userSpaceOnUse" x1="108.739" y1="64.1144" x2="174.6442" y2="178.2656">
		<stop  offset="0.1108" style="stop-color:#C6FFDD"/>
		<stop  offset="0.168" style="stop-color:#D4F5C7"/>
		<stop  offset="0.2569" style="stop-color:#E5E8AA"/>
		<stop  offset="0.3461" style="stop-color:#F1DE96"/>
		<stop  offset="0.4347" style="stop-color:#F9D98A"/>
		<stop  offset="0.5223" style="stop-color:#FBD786"/>
		<stop  offset="0.6123" style="stop-color:#FAB683"/>
		<stop  offset="0.7048" style="stop-color:#F89B80"/>
		<stop  offset="0.7994" style="stop-color:#F8887E"/>
		<stop  offset="0.8965" style="stop-color:#F77D7D"/>
		<stop  offset="1" style="stop-color:#F7797D"/>
	</linearGradient>
	<path class="st2" d="M189.43,178.53c0,1.29-0.65,1.94-1.94,1.94h-9.54c-0.89,0-1.62-0.07-2.16-0.22c-0.55-0.15-1.12-0.72-1.71-1.71
		l-26.67-44.4h-1.34h-2.53c-2.48,0-4.84-0.02-7.08-0.07c-2.24-0.05-5.34-0.17-9.31-0.37v43.81c0,0.8-0.25,1.49-0.75,2.09
		c-0.5,0.6-1.14,0.89-1.94,0.89h-8.05c-0.8,0-1.44-0.3-1.94-0.89c-0.5-0.6-0.75-1.29-0.75-2.09V73.18c0-1.09,0.25-1.86,0.75-2.31
		c0.5-0.45,1.44-0.77,2.83-0.97c1.59-0.2,3.45-0.37,5.59-0.52c2.13-0.15,4.37-0.27,6.71-0.37c2.33-0.1,4.69-0.17,7.08-0.22
		c2.38-0.05,4.67-0.07,6.85-0.07c5.86,0,11.35,0.55,16.46,1.64c5.11,1.09,9.54,2.88,13.26,5.37c3.73,2.48,6.65,5.76,8.79,9.84
		c2.13,4.07,3.2,9.14,3.2,15.21v1.04c0,4.17-0.57,7.93-1.71,11.25c-1.14,3.33-2.76,6.24-4.84,8.72c-2.09,2.49-4.57,4.57-7.45,6.26
		c-2.88,1.69-6.01,2.98-9.39,3.87l27.12,45.27C189.29,177.59,189.43,178.03,189.43,178.53z M171.85,100.82
		c0-7.48-2.38-12.66-7.15-15.55s-11.82-4.34-21.16-4.34c-1.19,0-2.53,0-4.02,0c-1.49,0-3.01,0.03-4.54,0.07
		c-1.54,0.05-3.01,0.1-4.4,0.15c-1.39,0.05-2.53,0.13-3.43,0.22v40.98c3.28,0.1,6.41,0.17,9.39,0.22c2.98,0.05,5.31,0.07,7,0.07
		c4.57,0,8.62-0.32,12.14-0.97c3.52-0.65,6.48-1.77,8.87-3.36c2.38-1.59,4.2-3.74,5.44-6.43c1.24-2.69,1.86-6.03,1.86-10.02V100.82z
		"/>
	<path class="st3" d="M268.26,127.73c-0.6,0.59-1.29,0.88-2.09,0.88h-45.74v48.86c0,0.8-0.3,1.5-0.89,2.09
		c-0.6,0.6-1.29,0.9-2.09,0.9h-7.6c-0.8,0-1.49-0.3-2.09-0.89c-0.6-0.6-0.89-1.29-0.89-2.09V96.43c0-9.93,2.66-17.03,7.97-21.31
		c5.31-4.27,13.24-6.41,23.77-6.41c2.18,0,4.64,0.03,7.38,0.07c2.73,0.05,5.44,0.1,8.12,0.15c2.68,0.05,5.21,0.13,7.6,0.22
		c2.38,0.1,4.37,0.25,5.96,0.45c0.5,0.1,0.87,0.35,1.12,0.75c0.25,0.4,0.37,0.84,0.37,1.34v7.45c0,1.19-0.55,1.79-1.64,1.79h-28.76
		c-3.97,0-7.15,0.27-9.54,0.82c-2.38,0.55-4.22,1.44-5.51,2.68c-1.29,1.24-2.16,2.83-2.61,4.77c-0.45,1.94-0.67,4.35-0.67,7.23
		v20.71h45.74c0.79,0,1.49,0.3,2.09,0.88c0.6,0.59,0.89,1.28,0.89,2.06v5.59C269.15,126.46,268.85,127.14,268.26,127.73z"/>
	<path class="st4" d="M331.84,200.61c-0.84,2.53-2.04,4.57-3.58,6.11c-1.54,1.54-3.48,2.61-5.81,3.2c-2.33,0.6-4.99,0.89-7.97,0.89
		c-1.49,0-2.83-0.05-4.02-0.15c-1.19-0.1-2.53-0.25-4.02-0.45c-1.79-0.3-2.68-1.09-2.68-2.38v-5.51c0-1.39,1.04-2.09,3.13-2.09H313
		c2.88,0,4.77-0.6,5.66-1.79c0.89-1.19,1.34-3.68,1.34-7.45v-88.51c0-0.79,0.25-1.49,0.74-2.09c0.5-0.6,1.14-0.89,1.94-0.89h7.75
		c0.79,0,1.44,0.3,1.94,0.89c0.5,0.6,0.75,1.29,0.75,2.09V191C333.11,194.87,332.69,198.08,331.84,200.61z M332.52,85.58
		c-0.6,0.55-1.29,0.82-2.09,0.82h-7.6c-0.8,0-1.49-0.27-2.09-0.82c-0.6-0.54-0.89-1.22-0.89-2.01V71.5c0-0.79,0.3-1.49,0.89-2.09
		c0.6-0.6,1.29-0.89,2.09-0.89h7.6c0.79,0,1.49,0.3,2.09,0.89c0.6,0.6,0.89,1.29,0.89,2.09v12.07
		C333.41,84.37,333.11,85.04,332.52,85.58z"/>
	<path class="st4" d="M407.01,160.9c0,7.55-2.56,13.04-7.67,16.46c-5.12,3.43-11.85,5.14-20.19,5.14c-1.39,0-3.05-0.03-4.99-0.07
		c-1.94-0.05-3.97-0.17-6.11-0.37c-2.14-0.2-4.3-0.45-6.48-0.75c-2.19-0.3-4.17-0.64-5.96-1.04c-2.09-0.5-3.13-1.49-3.13-2.98v-5.21
		c0-0.69,0.25-1.24,0.75-1.64c0.5-0.4,1.14-0.6,1.94-0.6h0.6c1.79,0.2,3.75,0.4,5.89,0.6c2.13,0.2,4.3,0.37,6.48,0.52
		c2.18,0.15,4.25,0.28,6.18,0.37c1.94,0.1,3.55,0.15,4.84,0.15c4.87,0,8.54-0.74,11.03-2.23c2.48-1.49,3.72-4.27,3.72-8.34
		c0-2.28-0.8-4.27-2.38-5.96c-1.59-1.69-4.52-3.82-8.79-6.41l-15.05-8.94c-4.57-2.78-8.25-5.83-11.03-9.16
		c-2.78-3.33-4.17-7.38-4.17-12.14c0-3.87,0.69-7.08,2.09-9.61c1.39-2.53,3.28-4.57,5.66-6.11c2.38-1.54,5.21-2.61,8.49-3.2
		c3.28-0.6,6.85-0.89,10.73-0.89c4.17,0,8.22,0.17,12.14,0.52c3.92,0.35,7.62,0.82,11.1,1.42c1.89,0.3,2.83,1.29,2.83,2.98v4.92
		c0,1.69-0.85,2.53-2.53,2.53h-0.45c-2.58-0.2-6.03-0.45-10.36-0.75c-4.32-0.3-8.57-0.45-12.74-0.45s-7.52,0.5-10.06,1.49
		c-2.53,0.99-3.8,3.38-3.8,7.15c0,2.29,0.84,4.25,2.53,5.89c1.69,1.64,4.27,3.45,7.75,5.44l14.75,8.79
		c6.16,3.68,10.43,7.25,12.81,10.73C405.82,152.61,407.01,156.53,407.01,160.9z"/>
	<circle class="st4" cx="288.5" cy="178.5" r="7.5"/>
</g>
<g>
</g>
<g>
</g>
<g>
</g>
<g>
</g>
<g>
</g>
<g>
</g>
<g>
</g>
<g>
</g>
<g>
</g>
<g>
</g>
<g>
</g>
<g>
</g>
<g>
</g>
<g>
</g>
<g>
</g>
</svg>
